<?xml version="1.0" encoding="UTF-8"?>
<svg width="80" height="80" viewBox="0 0 256 256" xmlns="http://www.w3.org/2000/svg">
  <defs>
    <linearGradient id="html5-gradient" x1="0%" y1="50%" x2="100%" y2="50%">
      <stop offset="0%" style="stop-color:#E44D26"/>
      <stop offset="100%" style="stop-color:#F16529"/>
    </linearGradient>
  </defs>
  <path fill="url(#html5-gradient)" d="M28.0334 0.00013122h22.7625l20.7594 23.1875v46.3781h-43.5219v-69.5656zm0 0"/>
  <path fill="#ffffff" d="M41.4141 46.3781l-8.6906-9.7031h8.6906v-13.4844h-13.3812v36.7687h13.3812v-13.5812zm0 0"/>
  <path fill="url(#html5-gradient)" d="M255.555 0l-23.241 260.03-104.47 28.96-104.182-28.96L0.445 0h255.11zM210.04 235.27l19.832-222.49H50.5993l19.832 222.49 69.9037 19.37 69.705-19.37z"/>
  <path fill="#EBEBEB" d="M128.116 53.983H35.8384l9.3201 104.378h82.9575v-36.321H84.1892l-3.728-41.884h47.6548V53.983zm0 193.537v-42.779l-0.2624 0.0706-38.2866-10.3262-2.4478-27.4746H60.7174l4.8171 53.9616 62.5815 17.3999z"/>
  <path fill="#ffffff" d="M127.89 53.983v26.173h83.2169l0.7779-8.698 1.7719-17.475H127.89zm0 68.057v26.173h41.1973l-3.8831 43.3741-37.3142 10.0741v42.779l62.5919-17.3505 0.4593-5.1367 7.1694-80.3413 0.7441-8.1937H127.89z"/>
</svg> 