<?xml version="1.0" encoding="UTF-8"?>
<svg width="80" height="80" viewBox="0 0 256 255" xmlns="http://www.w3.org/2000/svg">
  <defs>
    <linearGradient id="gradient-1" gradientUnits="userSpaceOnUse" x1="128" y1="0" x2="128" y2="128">
      <stop offset="0%" style="stop-color:#4B8BBE"/>
      <stop offset="100%" style="stop-color:#306998"/>
    </linearGradient>
    <linearGradient id="gradient-2" gradientUnits="userSpaceOnUse" x1="128" y1="128" x2="128" y2="255">
      <stop offset="0%" style="stop-color:#FFE052"/>
      <stop offset="100%" style="stop-color:#FFD43B"/>
    </linearGradient>
  </defs>
  <path d="M127.5 0C58.7 0 62.8 28.3 62.8 28.3l.1 29.3h65.9v9.3H40.9S0 63.3 0 132.2c0 68.8 35.7 66.5 35.7 66.5h21.3v-32s-1.2-35.7 35.1-35.7h60.5s34 .6 34-32.8V41.8S192.2 0 127.5 0zm-36.3 19.7c6.5 0 11.9 5.3 11.9 11.9s-5.3 11.9-11.9 11.9-11.9-5.3-11.9-11.9 5.3-11.9 11.9-11.9z" fill="url(#gradient-1)"/>
  <path d="M128.5 255c68.8 0 64.7-28.3 64.7-28.3l-.1-29.3h-65.9v-9.3h87.8s40.9 3.6 40.9-65.3c0-68.8-35.7-66.5-35.7-66.5h-21.3v32s1.2 35.7-35.1 35.7h-60.5s-34-.6-34 32.8v56.4S63.8 255 128.5 255zm36.3-19.7c-6.5 0-11.9-5.3-11.9-11.9s5.3-11.9 11.9-11.9 11.9 5.3 11.9 11.9-5.3 11.9-11.9 11.9z" fill="url(#gradient-2)"/>
</svg> 