<svg width="150" height="50" viewBox="0 0 150 50" fill="none" xmlns="http://www.w3.org/2000/svg">
  <path d="M25.0002 10C16.7158 10 10 16.7158 10 25.0002C10 33.2846 16.7158 40.0002 25.0002 40.0002C28.5049 40.0002 31.7432 38.7533 34.2773 36.6592C35.113 35.9453 35.2139 34.6709 34.5 33.8352C33.7861 32.9994 32.5117 32.8986 31.6758 33.6125C29.9258 35.0486 27.5586 35.8936 25.0002 35.8936C18.9828 35.8936 14.1066 31.0176 14.1066 25.0002C14.1066 18.9828 18.9828 14.1068 25.0002 14.1068C31.0176 14.1068 35.8936 18.9828 35.8936 25.0002C35.8936 25.5998 35.8396 26.1873 35.7373 26.7598C35.5 28.1338 36.5285 29.3945 37.9023 29.3945C38.8447 29.3945 39.7051 28.7344 39.8945 27.6953C40.0332 26.8125 40.0002 25.9121 40.0002 25.0002C40.0002 16.7158 33.2846 10 25.0002 10ZM28.8125 24.0578C28.0986 23.2221 26.8242 23.1211 25.9885 23.835C25.2744 24.5488 25.1736 25.8232 25.8875 26.6588C26.6014 27.4945 27.8758 27.5955 28.7115 26.8816C29.5471 26.1677 29.6264 24.8934 28.8125 24.0578Z" fill="#0056D2"/>
  <path d="M124.996 10C116.712 10 109.996 16.7158 109.996 25.0002C109.996 33.2846 116.712 40.0002 124.996 40.0002C133.28 40.0002 139.996 33.2846 139.996 25.0002C139.996 16.7158 133.28 10 124.996 10ZM124.996 35.8936C118.979 35.8936 114.103 31.0176 114.103 25.0002C114.103 18.9828 118.979 14.1068 124.996 14.1068C131.014 14.1068 135.89 18.9828 135.89 25.0002C135.89 31.0176 131.014 35.8936 124.996 35.8936Z" fill="#0056D2"/>
  <path d="M99.9964 10C91.712 10 84.9962 16.7158 84.9962 25.0002C84.9962 33.2846 91.712 40.0002 99.9964 40.0002C108.281 40.0002 114.996 33.2846 114.996 25.0002H106.875C106.875 28.9205 103.706 32.0895 99.7866 32.0895C95.8663 32.0895 92.6973 28.9205 92.6973 25.0002C92.6973 21.0799 95.8663 17.9109 99.7866 17.9109C100.933 17.9109 102.019 18.2109 102.974 18.7422L106.037 15.6797C104.368 14.5059 102.264 13.8057 99.9964 13.8057C91.712 13.8057 84.9962 16.7158 84.9962 25.0002C84.9962 33.2846 91.712 40.0002 99.9964 40.0002" fill="#0056D2"/>
  <path d="M76.4924 13.0293H69.9993V36.9707H76.4924V13.0293Z" fill="#0056D2"/>
  <path d="M64.9991 13.0293H50V19.5224H54.4917V36.9707H60.9848V19.5224H64.9991V13.0293Z" fill="#0056D2"/>
</svg> 