<svg width="150" height="50" viewBox="0 0 150 50" fill="none" xmlns="http://www.w3.org/2000/svg">
  <path d="M42.5029 9.98828H29.8467C29.0732 9.98828 28.3526 10.35 27.8681 10.9473L27.0732 11.9277C26.2997 12.8887 24.9116 12.8887 24.1381 11.9277L23.3433 10.9473C22.8589 10.35 22.1382 9.98828 21.3647 9.98828H8.70851C7.29047 9.98828 6 10.9473 6 12.4961V37.5215C6 39.0703 7.12622 40.0117 8.54426 40.0117H21.2004C21.9739 40.0117 22.6945 39.65 23.179 39.0527L23.9739 38.0723C24.7474 37.1113 26.1355 37.1113 26.909 38.0723L27.7038 39.0527C28.1883 39.65 28.9089 40.0117 29.6824 40.0117H42.3386C43.7566 40.0117 44.8828 39.0527 44.8828 37.5039V12.4961C45.0471 10.9473 43.9209 9.98828 42.5029 9.98828Z" fill="#022252"/>
  <path d="M88.2799 25.0215C88.2799 31.3398 83.5996 36.3496 77.6656 36.3496C71.7316 36.3496 67.0514 31.3398 67.0514 25.0215C67.0514 18.7031 71.7316 13.6934 77.6656 13.6934C83.5996 13.6934 88.2799 18.7031 88.2799 25.0215Z" fill="#E2231A"/>
  <path d="M114.673 13.6934H105.954V36.3496H114.673C122.244 36.3496 128.342 31.3398 128.342 25.0215C128.342 18.7031 122.244 13.6934 114.673 13.6934Z" fill="#022252"/>
  <path d="M50.0815 13.6934L59.315 25.0117L50.0815 36.3301H59.9728L69.2063 25.0117L59.9728 13.6934H50.0815Z" fill="#022252"/>
  <path d="M95.5217 13.6934L86.2882 25.0117L95.5217 36.3301H85.6304L76.3969 25.0117L85.6304 13.6934H95.5217Z" fill="#022252"/>
</svg> 
 