<svg width="150" height="50" viewBox="0 0 150 50" fill="none" xmlns="http://www.w3.org/2000/svg">
  <path d="M42.8598 10H16.4236C12.8383 10 10 12.8383 10 16.4236V33.5764C10 37.1617 12.8383 40 16.4236 40H42.8598C46.4451 40 49.2834 37.1617 49.2834 33.5764V16.4236C49.2834 12.8185 46.4451 10 42.8598 10Z" fill="#A435F0"/>
  <path d="M28.1837 17.1571C28.1837 16.0463 27.053 15.0964 25.4621 15.0964C23.9112 15.0964 22.7004 16.0463 22.7004 17.317C22.7004 18.748 23.9311 19.6977 25.4621 19.6977C27.013 19.6977 28.1837 18.7282 28.1837 17.1571Z" fill="white"/>
  <path d="M21.7306 21.0488H22.6804V33.9763H21.7306V33.9167C19.929 34.6443 18.1275 34.7837 16.4068 33.9167C14.6451 33.0694 13.5946 31.2877 13.5946 29.3471C13.5946 26.5486 15.5153 24.1099 18.566 24.1099C19.5756 24.1099 20.5652 24.3696 21.6907 24.9777L21.7306 21.0488ZM21.7306 31.6071V26.5884C20.6801 25.8608 19.6904 25.5011 18.6457 25.5011C16.5662 25.5011 14.9953 27.1917 14.9953 29.307C14.9953 31.4424 16.5462 33.173 18.5858 33.173C19.6704 33.173 20.7209 32.6643 21.7306 31.6071Z" fill="white"/>
  <path d="M36.3555 24.1099V33.8368H35.4058V33.0493C34.1951 33.8368 33.0244 34.1965 31.8136 34.1965C28.7629 34.1965 26.8621 31.7777 26.8621 29.1472C26.8621 26.5486 28.8427 24.1099 31.8734 24.1099C33.0442 24.1099 34.2151 24.5297 35.4058 25.4197V24.1099H36.3555ZM35.4058 31.6071V26.4886C34.2949 25.5011 33.1642 25.081 31.9734 25.081C29.8939 25.081 28.323 26.7716 28.323 29.1472C28.323 31.5028 29.8739 33.173 31.9734 33.173C33.1642 33.173 34.3151 32.6643 35.4058 31.6071Z" fill="white"/>
  <path d="M38.3552 15.0964H39.3048V33.8368H38.3552V15.0964Z" fill="white"/>
  <path d="M71.772 22.5401H67.0357V32.3352H63.9252V22.5401H59.189V19.6077H71.772V22.5401Z" fill="#A435F0"/>
  <path d="M81.8297 29.1877C81.8297 30.0785 82.0097 30.5239 82.5707 30.5239C83.1316 30.5239 83.3116 30.0585 83.3116 29.1877V19.6077H86.3818V29.1877C86.3818 32.0996 84.5925 32.6452 82.5707 32.6452C80.549 32.6452 78.7598 32.0996 78.7598 29.1877V19.6077H81.8301V29.1877H81.8297Z" fill="#A435F0"/>
  <path d="M93.4333 19.6077H97.1885C100.239 19.6077 102.68 21.0492 102.68 25.9912C102.68 30.5443 100.259 32.3353 97.1685 32.3353H93.4333V19.6077ZM96.4833 29.4031H96.8637C98.4455 29.4031 99.4878 28.5517 99.4878 25.9912C99.4878 23.1995 98.3855 22.5401 96.8637 22.5401H96.4833V29.4031Z" fill="#A435F0"/>
  <path d="M108.671 19.6077H114.841C116.542 19.6077 117.745 20.8692 117.745 22.7402C117.745 24.0622 117.264 24.8336 116.523 25.368C117.604 25.9531 118.245 26.9046 118.245 28.5115C118.245 30.7026 116.883 32.3351 114.621 32.3351H108.671V19.6077ZM112.717 24.4383H113.939C114.48 24.4383 114.681 24.0923 114.681 23.5366C114.681 23.0013 114.48 22.6354 113.939 22.6354H112.717V24.4383ZM112.717 29.3068H114.14C114.721 29.3068 115.142 28.9606 115.142 28.2701C115.142 27.6004 114.721 27.2343 114.14 27.2343H112.717V29.3068Z" fill="#A435F0"/>
  <path d="M124.353 19.6077H127.423V23.4216H130.913V19.6077H133.983V32.3352H130.913V26.3755H127.423V32.3352H124.353V19.6077Z" fill="#A435F0"/>
  <path d="M136.591 19.6077H139.882L143.151 32.3352H139.802L139.341 30.1643H137.053L136.591 32.3352H133.302L136.591 19.6077ZM138.774 24.3331L138.134 27.7794H138.374L137.773 24.3331H138.774Z" fill="#A435F0"/>
</svg> 